<?xml version="1.0" encoding="utf-8"?>
<!-- Generator: Adobe Illustrator 16.0.0, SVG Export Plug-In . SVG Version: 6.00 Build 0)  -->
<!DOCTYPE svg PUBLIC "-//W3C//DTD SVG 1.1//EN" "http://www.w3.org/Graphics/SVG/1.1/DTD/svg11.dtd">
<svg version="1.1" id="Layer_1" xmlns="http://www.w3.org/2000/svg" xmlns:xlink="http://www.w3.org/1999/xlink" x="0px" y="0px"
	 width="160.221px" height="122.861px" viewBox="0 0 160.221 122.861" enable-background="new 0 0 160.221 122.861"
	 xml:space="preserve">
<g>
	<path fill="#FFFFFF" d="M13.028,91.066h5.721v6.478H25v-6.478h5.747v18.515H25v-7.489h-6.251v7.489h-5.721V91.066z"/>
	<path fill="#FFFFFF" d="M46.589,91.066h5.708v11.03c0,1.094-0.171,2.127-0.512,3.098c-0.341,0.973-0.876,1.822-1.604,2.551
		c-0.729,0.728-1.493,1.238-2.292,1.533c-1.111,0.412-2.446,0.618-4.003,0.618c-0.901,0-1.884-0.062-2.949-0.188
		c-1.065-0.127-1.956-0.378-2.671-0.751c-0.716-0.375-1.371-0.907-1.964-1.598c-0.594-0.689-1-1.4-1.219-2.133
		c-0.354-1.178-0.53-2.221-0.53-3.13v-11.03h5.708v11.293c0,1.01,0.28,1.798,0.839,2.366c0.561,0.568,1.337,0.851,2.331,0.851
		c0.985,0,1.758-0.279,2.317-0.839c0.56-0.559,0.84-1.351,0.84-2.378V91.066z"/>
	<path fill="#FFFFFF" d="M56.054,91.066h7.524l2.901,11.265l2.881-11.265h7.52v18.515h-4.686v-14.12l-3.61,14.12h-4.241
		l-3.604-14.12v14.12h-4.686V91.066z"/>
	<path fill="#FFFFFF" d="M92.096,106.523h-6.495l-0.902,3.058h-5.841l6.958-18.515h6.24l6.958,18.515h-5.991L92.096,106.523z
		 M90.91,102.521l-2.043-6.655l-2.022,6.655H90.91z"/>
	<path fill="#FFFFFF" d="M101.028,91.066h5.342l6.972,10.242V91.066h5.393v18.515h-5.393l-6.934-10.167v10.167h-5.38V91.066z"/>
	<path fill="#FFFFFF" d="M122.694,91.066h5.733v18.515h-5.733V91.066z"/>
	<path fill="#FFFFFF" d="M131.352,103.455l5.443-0.34c0.118,0.883,0.358,1.557,0.72,2.02c0.59,0.75,1.431,1.124,2.526,1.124
		c0.816,0,1.446-0.19,1.888-0.574c0.442-0.383,0.663-0.828,0.663-1.332c0-0.48-0.211-0.91-0.631-1.288
		c-0.422-0.38-1.398-0.738-2.931-1.073c-2.509-0.565-4.299-1.313-5.367-2.249c-1.078-0.935-1.617-2.125-1.617-3.573
		c0-0.952,0.276-1.851,0.828-2.697c0.551-0.847,1.38-1.512,2.487-1.995c1.107-0.484,2.625-0.726,4.554-0.726
		c2.365,0,4.17,0.439,5.411,1.32c1.242,0.878,1.98,2.278,2.216,4.198l-5.392,0.315c-0.144-0.834-0.445-1.439-0.903-1.818
		c-0.459-0.38-1.093-0.568-1.9-0.568c-0.666,0-1.167,0.142-1.504,0.423c-0.337,0.282-0.505,0.625-0.505,1.029
		c0,0.295,0.14,0.561,0.417,0.797c0.269,0.242,0.909,0.47,1.919,0.681c2.501,0.54,4.293,1.084,5.374,1.635
		c1.082,0.553,1.869,1.237,2.361,2.054c0.493,0.817,0.74,1.729,0.74,2.74c0,1.188-0.329,2.281-0.986,3.283
		c-0.656,1.002-1.574,1.762-2.753,2.28c-1.179,0.517-2.665,0.776-4.458,0.776c-3.149,0-5.33-0.606-6.542-1.818
		S131.512,105.325,131.352,103.455z"/>
</g>
<g id="XMLID_1_">
	<g>
		<path fill="#FFFFFF" d="M160.223,7.007v108.85c0,3.87-3.14,7-7,7H7.013c-3.87,0-7-3.13-7-7V7.007c0-3.86,3.13-7,7-7h146.21
			C157.083,0.007,160.223,3.147,160.223,7.007z M157.173,113.817V9.067c0-3.32-2.68-6-6-6H9.063c-3.31,0-6,2.68-6,6v104.75
			c0,3.311,2.69,6,6,6h142.11C154.494,119.817,157.173,117.128,157.173,113.817z"/>
	</g>
	<g>
	</g>
</g>
<g>
</g>
<g>
</g>
<g>
</g>
<g>
</g>
<g>
</g>
<g>
</g>
</svg>
